<svg width="45" height="30" viewBox="0 0 45 30" fill="none" xmlns="http://www.w3.org/2000/svg">
<path d="M43.1359 24.3004C41.7961 22.4073 40.2194 20.7916 38.7275 19.076C37.3816 17.5295 37.2968 16.6324 38.3787 14.8476C39.5595 12.8995 40.8294 11.0262 42.0209 9.08697C43.1331 7.27463 44.2701 5.46723 44.8554 3.29726C45.2266 1.91672 44.8983 1.30693 43.6965 1.06521C43.4894 1.02291 43.2754 1.02071 43.0646 1.02071L35.9345 1.01082C35.0564 0.995441 34.5709 1.44647 34.2604 2.36335C33.8411 3.60271 33.4088 4.84096 32.9093 6.03692C31.7761 8.74856 30.5104 11.3696 28.736 13.589C28.3447 14.0785 27.9119 14.697 27.2581 14.4421C26.4401 14.0905 26.199 12.5029 26.2126 11.9662L26.2056 2.27161C26.047 0.886668 25.7863 0.269187 24.619 0L17.2125 0.00164822C16.2238 0.00164822 15.7281 0.451574 15.2002 1.18003C14.8956 1.60084 14.8038 1.87387 15.4296 2.01341C16.6589 2.28809 17.3514 3.22529 17.5352 4.67725C17.8299 6.9972 17.8094 9.32649 17.6396 11.6558C17.5897 12.3359 17.4904 13.0143 17.2614 13.6494C16.9033 14.6476 16.325 14.8509 15.5653 14.2367C14.8774 13.6807 14.3943 12.8962 13.9214 12.1085C12.1451 9.1518 10.7279 5.96331 9.57225 2.61276C9.23835 1.64479 8.66241 1.05807 7.79173 1.04214C5.65258 1.00203 3.51297 0.995441 1.37382 1.04433C0.086696 1.0729 -0.29711 1.80904 0.227067 3.18354C2.55695 9.28859 5.15032 15.2239 8.53556 20.6307C10.2736 23.4055 12.2692 25.8551 14.8471 27.5911C17.7688 29.5589 20.9139 30.1511 24.2264 29.9687C25.7774 29.883 26.2433 29.4078 26.3151 27.5867C26.3636 26.3407 26.4835 25.1019 27.0053 23.9823C27.5174 22.8836 28.2929 22.6743 29.1869 23.3577C29.6342 23.7 30.011 24.1356 30.3668 24.5949C31.2398 25.72 32.0816 26.8791 32.9877 27.9663C34.1242 29.3287 35.4705 30.1335 37.1634 29.9693L43.7165 29.9709C44.7723 29.8896 45.3198 28.3646 44.7136 26.9763C44.2878 26.004 43.7291 25.1382 43.1359 24.3004Z" fill="white"/>
</svg>
