<svg width="40" height="30" viewBox="0 0 40 30" fill="none" xmlns="http://www.w3.org/2000/svg">
<path d="M39.9532 3.57337C39.8959 3.51113 39.8012 3.49 39.7205 3.52395C38.5247 4.01245 37.2666 4.36364 35.9707 4.57111C37.3464 3.61826 38.3715 2.29875 38.8971 0.785741C38.9225 0.713315 38.8963 0.6341 38.8319 0.586948C38.7672 0.539796 38.6775 0.533761 38.6066 0.572614C37.0572 1.41871 35.3792 2.01509 33.6167 2.34591C32.055 0.85364 29.8743 0 27.6174 0C23.0274 0 19.2935 3.43795 19.2935 7.6639C19.2935 8.17503 19.3472 8.68125 19.4537 9.17276C13.0963 8.81139 7.15189 6.00113 3.11 1.43644C3.06862 1.38966 3.00594 1.36364 2.94039 1.36967C2.87525 1.3742 2.81708 1.40815 2.78431 1.45983C2.04688 2.62467 1.65728 3.95737 1.65728 5.31309C1.65728 7.66277 2.81667 9.85968 4.79091 11.3093C3.7745 11.1969 2.78185 10.9023 1.8867 10.4447C1.82648 10.4134 1.75151 10.4138 1.69128 10.4459C1.63106 10.4776 1.59296 10.5364 1.59132 10.6005L1.5905 10.6986C1.5905 14.0732 4.00556 17.0362 7.44153 18.02C6.53655 18.1543 5.59757 18.1452 4.67456 17.983C4.60656 17.9713 4.53527 17.9928 4.48857 18.0411C4.44228 18.0894 4.42671 18.1569 4.44801 18.218C5.47835 21.1792 8.34119 23.2558 11.6735 23.5145C8.89384 25.3897 5.60822 26.3776 2.1366 26.3776C1.49709 26.3776 0.85308 26.3425 0.222174 26.2742C0.132045 26.2648 0.0427351 26.3142 0.0115996 26.3938C-0.019536 26.4742 0.013648 26.5639 0.0914869 26.6096C3.84824 28.828 8.19206 30 12.6539 30C27.2487 30 35.9699 19.0841 35.9699 8.53112C35.9699 8.23727 35.9638 7.94493 35.9511 7.65334C37.5255 6.59298 38.877 5.29498 39.9667 3.79253C40.0155 3.72539 40.0102 3.63599 39.9532 3.57337Z" fill="white"/>
</svg>
