<svg width="40" height="30" viewBox="0 0 40 30" fill="none" xmlns="http://www.w3.org/2000/svg">
<path d="M39.3088 4.82586C38.8191 2.53685 37.0791 0.848082 34.9845 0.596167C30.0243 0.000366936 25.0038 -0.00274297 20.0064 0.000367096C15.0082 -0.00274297 9.98689 0.000366936 5.02668 0.596167C2.93326 0.848082 1.19453 2.53685 0.704826 4.82586C0.00784518 8.08565 0 11.644 0 15.0002C0 18.3564 0 21.9143 0.696981 25.1737C1.18586 27.4623 2.92501 29.151 5.01966 29.4034C9.97946 29.9996 15.0004 30.0027 19.9986 29.9996C24.9976 30.0027 30.0172 29.9996 34.9766 29.4034C37.07 29.1515 38.8104 27.4627 39.3001 25.1737C39.9975 21.9139 40 18.356 40 15.0002C40 11.644 40.0058 8.08565 39.3088 4.82586ZM14.8381 21.6806C14.8381 16.9196 14.8381 12.2083 14.8381 7.44676C19.0774 9.82685 23.2886 12.1909 27.5547 14.5857C23.3018 16.9591 19.0885 19.309 14.8381 21.6806Z" fill="white"/>
</svg>
